<svg xmlns="http://www.w3.org/2000/svg" width="40" height="35.428" viewBox="0 0 40 35.428"><defs><style>.a{fill:#fff;}</style></defs><g transform="translate(-85.5 -105.006)"><g transform="translate(85.5 105.006)"><g transform="translate(0 0)"><path class="a" d="M111.324,107.179a2.932,2.932,0,0,0-5.372-.707l-.451.782-.451-.782a2.936,2.936,0,0,0-4.006-1.073h0a2.936,2.936,0,0,0-1.073,4.006l2.144,3.714-7.912,13.7H88.433a2.933,2.933,0,0,0,0,5.865H110.7l-3.386-5.865h-6.344L111.031,109.4A2.913,2.913,0,0,0,111.324,107.179Z" transform="translate(-85.5 -105.006)"/></g></g><g transform="translate(106.855 115.465)"><g transform="translate(0 0)"><path class="a" d="M283.261,205.525h-5.769l-6.558-11.359-3.386,5.865,10.182,17.636a2.913,2.913,0,0,0,1.781,1.367,2.95,2.95,0,0,0,.764.1,2.935,2.935,0,0,0,2.535-4.4l-1.931-3.345h2.383a2.933,2.933,0,0,0,0-5.865Z" transform="translate(-267.548 -194.166)"/></g></g><g transform="translate(88.492 135.035)"><g transform="translate(0)"><path class="a" d="M111.972,361l-.577,1a2.933,2.933,0,0,0,5.079,2.932l2.27-3.931Z" transform="translate(-111.003 -361)"/></g></g></g></svg>