<svg xmlns="http://www.w3.org/2000/svg" width="60" height="55.714" viewBox="0 0 60 55.714"><defs><style>.a{fill:#4e9533;}</style></defs><g transform="translate(0)"><path class="a" d="M6.75,55.714h46.5A6.756,6.756,0,0,0,60,48.939V12.029a6.721,6.721,0,0,0-6.751-6.735H51.176V1a.966.966,0,0,0-.967-1H39.383a1.05,1.05,0,0,0-1.064,1V5.294H21.68V1a1.05,1.05,0,0,0-1.064-1H9.79a.966.966,0,0,0-.967,1V5.294H6.75A6.721,6.721,0,0,0,0,12.029V48.939A6.756,6.756,0,0,0,6.75,55.714Zm46.5-2.017H6.75a4.737,4.737,0,0,1-4.734-4.759V19.16H57.983V48.939A4.737,4.737,0,0,1,53.249,53.7ZM40.336,2.017h8.824v8.571H40.336Zm-29.5,0h8.824v8.571H10.84ZM6.75,7.311H8.823v4.328a.939.939,0,0,0,.967.967H20.617a1.022,1.022,0,0,0,1.064-.967V7.311H38.319v4.328a1.022,1.022,0,0,0,1.064.967H50.21a.939.939,0,0,0,.967-.967V7.311h2.073a4.7,4.7,0,0,1,4.734,4.719v5.113H2.017V12.029A4.7,4.7,0,0,1,6.75,7.311Zm0,0" transform="translate(0 0)"/><path class="a" d="M166.315,197.021,159.288,196l-3.142-6.368a1.008,1.008,0,0,0-1.809,0L151.2,196l-7.027,1.021a1.008,1.008,0,0,0-.558,1.72l5.084,4.956-1.2,7a1.009,1.009,0,0,0,1.463,1.063l6.284-3.3,6.285,3.3a1.009,1.009,0,0,0,1.463-1.063l-1.2-7,5.085-4.956a1.008,1.008,0,0,0-.559-1.72Zm-6.313,5.6a1.008,1.008,0,0,0-.29.892l.945,5.507-4.946-2.6a1.007,1.007,0,0,0-.938,0l-4.945,2.6.944-5.507a1.007,1.007,0,0,0-.29-.892l-4-3.9,5.529-.8a1.009,1.009,0,0,0,.76-.551l2.472-5.01,2.473,5.01a1.008,1.008,0,0,0,.759.552l5.529.8Zm0,0" transform="translate(-125.242 -165.238)"/></g></svg>