<svg xmlns="http://www.w3.org/2000/svg" width="60" height="58.582" viewBox="0 0 60 58.582"><defs><style>.a{fill:#4e9533;}</style></defs><path class="a" d="M59.672.963A1.16,1.16,0,0,0,58.353.716L.677,27.186a1.162,1.162,0,0,0,.293,2.2L26.84,33.723,29.8,58.169a1.164,1.164,0,0,0,.957,1.005,1.132,1.132,0,0,0,.2.017,1.161,1.161,0,0,0,1.041-.646L59.88,2.288A1.162,1.162,0,0,0,59.672.963ZM31.636,54.029,29.043,32.582a1.164,1.164,0,0,0-.962-1.006l-23-3.855L56.339,4.2Z" transform="translate(0 -0.61)"/></svg>