<svg xmlns="http://www.w3.org/2000/svg" width="35" height="39.095" viewBox="0 0 35 39.095"><defs><style>.a{fill:#fff;}</style></defs><path class="a" d="M44.382,16.761,15.8.422A3.2,3.2,0,0,0,14.208,0h-.033c-.074,0-.147,0-.221.01l-.1.01q-.086.009-.171.024c-.021,0-.042,0-.062.009h0A3.2,3.2,0,0,0,11,3.209V35.886a3.2,3.2,0,0,0,2.625,3.154h0l.056.008q.092.016.184.026l.093.009c.072.006.145.009.217.01l.037,0a3.2,3.2,0,0,0,1.59-.422L44.382,22.334A3.208,3.208,0,0,0,46,19.549h0A3.209,3.209,0,0,0,44.382,16.761Zm-11.3-3.245-2.842,3.728L23.005,7.758ZM43,19.91,23.005,31.337,35.522,14.916,43,19.188a.416.416,0,0,1,0,.722Z" transform="translate(-10.998)"/></svg>