<svg xmlns="http://www.w3.org/2000/svg" width="60" height="57.171" viewBox="0 0 60 57.171"><defs><style>.a{fill:#4e9533;}</style></defs><path class="a" d="M12.122,58.486a1.073,1.073,0,0,1-1.058-1.255l3.32-19.351L.324,24.176a1.074,1.074,0,0,1,.6-1.831l19.428-2.823,8.69-17.606a1.072,1.072,0,0,1,.962-.6h0a1.07,1.07,0,0,1,.962.6l8.688,17.606L59.08,22.345a1.074,1.074,0,0,1,.6,1.831l-14.059,13.7,3.319,19.35a1.073,1.073,0,0,1-1.558,1.132L30,49.228,12.621,58.363A1.082,1.082,0,0,1,12.122,58.486ZM3.382,24.157l12.9,12.579a1.074,1.074,0,0,1,.308.95L13.548,55.448,29.5,47.063a1.069,1.069,0,0,1,1,0l15.951,8.386L43.406,37.687a1.075,1.075,0,0,1,.308-.95l12.9-12.579L38.785,21.566a1.074,1.074,0,0,1-.809-.587L30,4.819l-7.976,16.16a1.074,1.074,0,0,1-.809.587Z" transform="translate(0 -1.317)"/></svg>