<svg xmlns="http://www.w3.org/2000/svg" width="1920" height="926.12" viewBox="0 0 1920 926.12"><defs><style>.a{fill:#f5f6e0;}</style></defs><path class="a" d="M1160-1185.9s-97,40.49-182.71,95.43c-2.32,1.48-4.62,3-6.92,4.48-26.37,18-55.37,33-77,56.52-2.17,2.06-4.3,4.14-6.39,6.28s-4.14,4.31-6.15,6.55c-2.22,2.37-4.38,4.75-6.48,7.18a162,162,0,0,0-17,23.4q-3,4.44-5.93,9t-5.79,9.16c-1.91,3.09-3.82,6.21-5.73,9.33-2.29,2.26-4.56,4.56-6.83,6.87C810-925,783-903,752.79-884.52c-2,1.45-3.93,2.93-5.86,4.46a148.871,148.871,0,0,0-11.22,9.81q-3.71,2.63-7.37,5.29c-22,16-43.34,33.72-70.38,40.57-2.38,1-4.74,2.11-7.11,3.24s-4.72,2.28-7.1,3.51q-4.11,2-8.33,3.87c-2.83,1.22-5.69,2.37-8.61,3.43-2.53,1.27-5,2.53-7.58,3.77-7.59,3.73-15.31,7.28-23.15,10.71q-5.18,2.33-10.34,4.58a465.059,465.059,0,0,1-73,25.24q-5.53,1.38-11.07,2.57C469-753,435-755,402.32-747.09c-2.6.81-5.29,1.74-8.08,2.74C330-720.43,211.92-655.07,183.51-492.72c0,0-31.06,333.17-376.94,190.59,0,0-308.67-139.77-566.57-69.18v111.53H1160Z" transform="translate(760 1185.9)"/></svg>