<svg xmlns="http://www.w3.org/2000/svg" width="60" height="60.008" viewBox="0 0 60 60.008"><defs><style>.a{fill:#4e9533;}</style></defs><path class="a" d="M30,0a30,30,0,0,0,0,60.008q1.356,0,2.7-.121c.833-.075,1.659-.189,2.478-.332L35.5,59.5A30,30,0,0,0,30,0Zm-2.41,57.9h-.071c-.778-.069-1.55-.173-2.315-.306-.044-.008-.088-.013-.131-.021q-1.122-.2-2.221-.494l-.177-.045c-.715-.194-1.422-.419-2.119-.669-.072-.026-.145-.049-.217-.076-.683-.251-1.354-.532-2.015-.837-.082-.037-.164-.072-.246-.111-.648-.3-1.283-.638-1.907-.993l-.265-.149q-.92-.537-1.8-1.147c-.089-.062-.179-.122-.267-.184-.578-.41-1.141-.845-1.689-1.3L12,51.438V43.006A11.015,11.015,0,0,1,23,32h14a11.015,11.015,0,0,1,11,11v8.433l-.133.111q-.839.7-1.722,1.325c-.078.055-.157.107-.235.161q-.892.62-1.828,1.167c-.078.045-.158.088-.236.133-.632.36-1.276.7-1.931,1.006-.075.035-.151.068-.227.1-.666.307-1.343.59-2.031.843-.068.025-.137.047-.2.071-.7.251-1.41.478-2.129.673l-.172.043c-.734.194-1.475.361-2.224.5-.043.008-.086.013-.129.02-.766.134-1.539.238-2.318.307h-.071c-.8.069-1.6.106-2.41.106S28.392,57.971,27.594,57.9Zm22.413-8.317V43.006a13.017,13.017,0,0,0-13-13H23a13.017,13.017,0,0,0-13,13v6.578a28,28,0,1,1,40.005,0Zm0,0"/><path class="a" d="M170,64a10,10,0,1,0,10,10A10,10,0,0,0,170,64Zm0,18a8,8,0,1,1,8-8A8,8,0,0,1,170,82Zm0,0" transform="translate(-139.997 -55.999)"/></svg>